HIERARCHY
ROOT Hips
{
	OFFSET 0.00 0.00 0.00
	CHANNELS 6 Xposition Yposition Zposition Xrotation Yrotation Zrotation
	JOINT Spine
	{
		OFFSET 0.00000 5.89385 0.00000
		CHANNELS 3 Xrotation Yrotation Zrotation
		JOINT Head
		{
			OFFSET 0.00000 16.44715 0.00000
			CHANNELS 3 Xrotation Yrotation Zrotation
			End Site
			{
				OFFSET 0.00000 4.52755 0.00000
			}
		}
		JOINT LeftShoulder
		{
			OFFSET 0.00000 10.90038 0.00000
			CHANNELS 3 Xrotation Yrotation Zrotation
			JOINT LeftArm
			{
				OFFSET 8.21946 0.00000 0.00000
				CHANNELS 3 Xrotation Yrotation Zrotation
				JOINT LeftForeArm
				{
					OFFSET 11.09494 0.00000 0.00000
					CHANNELS 3 Yrotation Zrotation Xrotation
					JOINT LeftHand
					{
						OFFSET 9.10388 0.00000 0.00000
						CHANNELS 3 Xrotation Yrotation Zrotation
						JOINT LeftHandThumb1
						{
							OFFSET 0.00000 0.00000 0.00000
							CHANNELS 3 Xrotation Zrotation Yrotation
							End Site
							{
								OFFSET 0.00000 0.00000 3.93700
							}
						}
						End Site
						{
							OFFSET 3.93700 0.00000 0.00000
						}
					}
				}
			}
		}
		JOINT RightShoulder
		{
			OFFSET 0.00000 10.90038 0.00000
			CHANNELS 3 Xrotation Yrotation Zrotation
			JOINT RightArm
			{
				OFFSET -8.21946 0.00000 0.00000
				CHANNELS 3 Xrotation Yrotation Zrotation
				JOINT RightForeArm
				{
					OFFSET -11.09494 0.00000 0.00000
					CHANNELS 3 Yrotation Zrotation Xrotation
					JOINT RightHand
					{
						OFFSET -9.10388 0.00000 0.00000
						CHANNELS 3 Xrotation Yrotation Zrotation
						JOINT RightHandThumb1
						{
							OFFSET 0.00000 0.00000 0.00000
							CHANNELS 3 Xrotation Zrotation Yrotation
							End Site
							{
								OFFSET 0.00000 0.00000 3.93700
							}
						}
						End Site
						{
							OFFSET -3.93700 0.00000 0.00000
						}
					}
				}
			}
		}
	}
	JOINT LeftUpLeg
	{
		OFFSET 3.69794 0.00000 0.00000
		CHANNELS 3 Xrotation Yrotation Zrotation
		JOINT LeftLeg
		{
			OFFSET 0.00000 -16.18147 0.00000
			CHANNELS 3 Xrotation Yrotation Zrotation
			JOINT LeftFoot
			{
				OFFSET 0.00000 -16.50139 0.00000
				CHANNELS 3 Xrotation Yrotation Zrotation
				JOINT LeftToeBase
				{
					OFFSET 0.00000 -1.65857 6.18989
					CHANNELS 3 Xrotation Yrotation Zrotation
					End Site
					{
						OFFSET 0.00000 0.00000 2.95275
					}
				}
			}
		}
	}
	JOINT RightUpLeg
	{
		OFFSET -3.69794 0.00000 0.00000
		CHANNELS 3 Xrotation Yrotation Zrotation
		JOINT RightLeg
		{
			OFFSET 0.00000 -16.18147 0.00000
			CHANNELS 3 Xrotation Yrotation Zrotation
			JOINT RightFoot
			{
				OFFSET 0.00000 -16.50139 0.00000
				CHANNELS 3 Xrotation Yrotation Zrotation
				JOINT RightToeBase
				{
					OFFSET 0.00000 -1.65857 6.18989
					CHANNELS 3 Xrotation Yrotation Zrotation
					End Site
					{
						OFFSET 0.00000 0.00000 2.95275
					}
				}
			}
		}
	}
}
MOTION
Frames: 15
Frame Time: 0.008333
 5.4177 35.9745 -1.0964 -110.6131 -82.6934 -109.6872 12.3098 1.2680 -2.1766 10.2630 8.6943 4.5703 5.2464 9.1339 27.8478 -41.2415 14.4885 -29.2761 -1.4555 0.0000 12.0674 2.1918 12.5394 -9.9975 33.1476 -0.0000 26.2537 34.6886 -29.7027 -9.5832 -67.7889 3.6223 35.6001 -2.4660 -0.0000 -8.8426 0.3411 -3.0288 6.4289 32.8623 0.0000 -24.3270 11.6191 15.2222 5.0632 5.3745 -0.0000 -0.0000 -9.3831 10.5426 -9.4904 7.4196 0.0000 -0.0000 11.5187 -10.6145 -6.7527 2.7983 0.0000 -0.0000 -10.0489 -9.1719 15.7881 10.4473 -0.0000 -0.0000
 5.4216 35.9742 -1.0953 -110.6630 -82.6747 -109.7528 12.3213 1.2548 -2.1642 10.3365 8.6905 4.5842 5.2407 9.1283 27.8491 -41.2226 14.4861 -29.2807 -1.4679 0.0000 12.0872 2.2028 12.5653 -10.0267 33.1476 -0.0000 26.2537 34.7125 -29.6957 -9.5829 -67.8600 3.6115 35.6287 -2.4655 -0.0000 -8.8041 0.3438 -3.0302 6.4761 32.8623 0.0000 -24.3270 11.6370 15.2320 5.0748 5.3574 0.0000 0.0000 -9.3797 10.5433 -9.5003 7.4277 0.0000 -0.0000 11.5083 -10.6186 -6.7431 2.8308 0.0000 -0.0000 -10.0567 -9.1568 15.7930 10.4466 0.0000 -0.0000
 5.4263 35.9743 -1.0943 -110.7039 -82.6594 -109.8142 12.3345 1.2511 -2.1429 10.3949 8.6733 4.6023 5.2385 9.1132 27.8468 -41.2140 14.4909 -29.2829 -1.4884 0.0000 12.1266 2.2089 12.5713 -10.0492 33.1476 -0.0000 26.2537 34.7114 -29.6882 -9.5913 -67.8933 3.5940 35.6509 -2.4429 -0.0000 -8.8087 0.3470 -3.0485 6.4963 32.8623 0.0000 -24.3270 11.6448 15.2476 5.0940 5.3500 0.0000 -0.0000 -9.3936 10.5306 -9.5005 7.4844 -0.0000 0.0000 11.4973 -10.6034 -6.7270 2.8624 -0.0000 0.0000 -10.0532 -9.1553 15.7732 10.4222 0.0000 -0.0000
 5.4309 35.9742 -1.0935 -110.7518 -82.6421 -109.8789 12.3493 1.2407 -2.1271 10.4528 8.6529 4.6136 5.2600 9.1266 27.8348 -41.2273 14.4678 -29.2898 -1.4980 0.0000 12.1564 2.2139 12.5573 -10.0825 33.1476 -0.0000 26.2537 34.6848 -29.6742 -9.6226 -67.9269 3.5455 35.6838 -2.4185 -0.0000 -8.7727 0.3462 -3.0336 6.5142 32.8623 0.0000 -24.3270 11.6613 15.2368 5.1069 5.3400 0.0000 0.0000 -9.4045 10.5730 -9.4795 7.4966 0.0000 0.0000 11.4798 -10.5838 -6.7159 2.9120 0.0000 -0.0000 -10.0731 -9.1549 15.7508 10.4120 -0.0000 -0.0000
 5.4361 35.9743 -1.0933 -110.7942 -82.6274 -109.9476 12.3683 1.2326 -2.0958 10.4986 8.6197 4.6242 5.2576 9.1179 27.8242 -41.2118 14.4783 -29.2909 -1.5532 0.0000 12.1463 2.2259 12.5969 -10.1056 33.1476 -0.0000 26.2537 34.6859 -29.6638 -9.6227 -67.9519 3.5545 35.6969 -2.4045 -0.0000 -8.7867 0.3478 -3.0475 6.5144 32.8623 0.0000 -24.3270 11.6661 15.2441 5.1315 5.3265 -0.0000 0.0000 -9.4041 10.5483 -9.5026 7.4873 0.0000 0.0000 11.4520 -10.5859 -6.6965 2.9717 -0.0000 0.0000 -10.0832 -9.1229 15.7383 10.4108 -0.0000 0.0000
 5.4419 35.9739 -1.0932 -110.9875 -82.6106 -110.1684 12.3821 1.2542 -2.0638 10.5402 8.5732 4.6219 5.2713 9.1106 27.8131 -41.2046 14.4605 -29.3078 -1.5773 0.0000 12.1298 2.2270 12.6454 -10.0731 33.1476 -0.0000 26.2537 34.6578 -29.6527 -9.6419 -67.9363 3.5485 35.7040 -2.3760 -0.0000 -8.7563 0.3516 -3.0590 6.5605 32.8623 0.0000 -24.3270 11.6687 15.2525 5.1554 5.3261 -0.0000 0.0000 -9.4340 10.5897 -9.4901 7.5867 0.0000 -0.0000 11.4186 -10.5475 -6.6743 3.0321 -0.0000 0.0000 -10.1011 -9.1353 15.7186 10.4197 0.0000 -0.0000
 5.4481 35.9738 -1.0944 -111.2065 -82.5957 -110.4214 12.3968 1.2628 -2.0267 10.5731 8.5512 4.6208 5.2875 9.1254 27.8061 -41.1899 14.4529 -29.3452 -1.6083 0.0000 12.1225 2.2022 12.6217 -9.9811 33.1476 -0.0000 26.2537 34.6419 -29.6340 -9.6595 -67.9283 3.5584 35.7135 -2.3610 -0.0000 -8.7230 0.3606 -3.1075 6.6223 32.8623 0.0000 -24.3270 11.6570 15.2734 5.1939 5.3315 -0.0000 0.0000 -9.4613 10.5821 -9.4957 7.6345 -0.0000 -0.0000 11.3713 -10.5064 -6.6443 3.1143 0.0000 0.0000 -10.1213 -9.1245 15.6466 10.3929 0.0000 -0.0000
 5.4547 35.9733 -1.0965 -111.4795 -82.5756 -110.7306 12.4186 1.2890 -1.9832 10.5966 8.5212 4.6129 5.2941 9.1158 27.7938 -41.1555 14.4409 -29.3635 -1.6265 0.0000 12.1173 2.1961 12.5668 -9.9957 33.1476 -0.0000 26.2537 34.6286 -29.6274 -9.6772 -67.8952 3.5936 35.7268 -2.3671 -0.0000 -8.7193 0.3534 -3.0475 6.6176 32.8623 0.0000 -24.3270 11.6442 15.3240 5.2351 5.3424 0.0000 -0.0000 -9.4792 10.5643 -9.5066 7.6323 -0.0000 0.0000 11.3193 -10.4782 -6.6135 3.2019 -0.0000 0.0000 -10.1505 -9.1110 15.6066 10.3757 0.0000 0.0000
 5.4628 35.9729 -1.0999 -111.8648 -82.5675 -111.1606 12.4199 1.3246 -1.9298 10.6264 8.5031 4.6086 5.3142 9.1146 27.7797 -41.1053 14.4093 -29.3987 -1.6345 0.0000 12.0429 2.1648 12.5475 -9.8708 33.1476 -0.0000 26.2537 34.6344 -29.6192 -9.6848 -67.8936 3.6239 35.7340 -2.3763 -0.0000 -8.6860 0.3608 -3.0920 6.6589 32.8623 0.0000 -24.3270 11.6087 15.3701 5.2920 5.3603 -0.0000 -0.0000 -9.4951 10.5453 -9.5619 7.6255 -0.0000 0.0000 11.2446 -10.4281 -6.5714 3.3034 0.0000 -0.0000 -10.1873 -9.0842 15.5287 10.3995 -0.0000 -0.0000
 5.4701 35.9719 -1.1044 -112.3001 -82.5489 -111.6427 12.4345 1.3762 -1.8740 10.6421 8.4790 4.5927 5.3314 9.1253 27.7583 -41.1212 14.3702 -29.4151 -1.6108 0.0000 12.0221 2.1871 12.5738 -9.9503 33.1476 -0.0000 26.2537 34.6302 -29.6192 -9.6912 -67.8871 3.6616 35.7454 -2.4004 -0.0000 -8.6921 0.3543 -3.0512 6.6271 32.8623 0.0000 -24.3270 11.5838 15.4143 5.3501 5.3788 -0.0000 0.0000 -9.5178 10.5493 -9.6158 7.6451 -0.0000 -0.0000 11.1709 -10.3697 -6.5288 3.4146 -0.0000 0.0000 -10.2258 -9.0724 15.4869 10.3966 0.0000 -0.0000
 5.4782 35.9717 -1.1099 -112.7838 -82.5314 -112.1677 12.4455 1.4153 -1.8242 10.6479 8.4763 4.5805 5.3295 9.1332 27.7482 -41.1255 14.3807 -29.4455 -1.5991 0.0000 12.0389 2.1740 12.5307 -9.9244 33.1476 -0.0000 26.2537 34.6236 -29.6082 -9.7027 -67.8741 3.6975 35.7577 -2.4036 -0.0000 -8.7197 0.3508 -3.0342 6.5978 32.8623 0.0000 -24.3270 11.5577 15.4506 5.4020 5.3944 0.0000 -0.0000 -9.5326 10.5632 -9.6662 7.6526 0.0000 -0.0000 11.0781 -10.3203 -6.4921 3.5499 0.0000 -0.0000 -10.2819 -9.0484 15.4181 10.4091 0.0000 -0.0000
 5.4850 35.9710 -1.1161 -113.2579 -82.5188 -112.6811 12.4422 1.4515 -1.7728 10.6741 8.4719 4.5629 5.3732 9.1589 27.7370 -41.1954 14.4143 -29.4725 -1.5996 0.0000 12.0778 2.1805 12.5487 -9.9399 33.1476 -0.0000 26.2537 34.6330 -29.5929 -9.7135 -67.8953 3.7077 35.7658 -2.3966 -0.0000 -8.7004 0.3479 -3.0323 6.5477 32.8623 0.0000 -24.3270 11.5318 15.4873 5.4532 5.4003 -0.0000 0.0000 -9.5407 10.5687 -9.7132 7.6453 0.0000 0.0000 10.9864 -10.2913 -6.4569 3.6745 -0.0000 0.0000 -10.3270 -8.9858 15.3371 10.3648 -0.0000 0.0000
 5.4915 35.9703 -1.1249 -113.7244 -82.4983 -113.1738 12.4561 1.4854 -1.7443 10.6748 8.4666 4.5622 5.3758 9.1668 27.7267 -41.2064 14.4124 -29.4757 -1.5786 0.0000 12.1295 2.2034 12.5462 -10.0443 33.1476 -0.0000 26.2537 34.6369 -29.5820 -9.7081 -67.9121 3.7305 35.7814 -2.3842 -0.0000 -8.7097 0.3475 -3.0336 6.5371 32.8623 0.0000 -24.3270 11.5182 15.5241 5.4930 5.4036 0.0000 -0.0000 -9.5368 10.5754 -9.7641 7.6330 0.0000 -0.0000 10.9001 -10.2471 -6.4319 3.8012 0.0000 -0.0000 -10.3821 -8.9551 15.3022 10.3395 0.0000 0.0000
 5.4988 35.9698 -1.1349 -114.2058 -82.4790 -113.6867 12.4640 1.5156 -1.7030 10.6862 8.4681 4.5532 5.3785 9.1677 27.7132 -41.1958 14.4304 -29.4967 -1.5653 0.0000 12.1574 2.1936 12.5349 -10.0092 33.1476 -0.0000 26.2537 34.6196 -29.5648 -9.7340 -67.9112 3.7387 35.8019 -2.3664 -0.0000 -8.6944 0.3451 -3.0285 6.5041 32.8623 0.0000 -24.3270 11.4948 15.5868 5.5402 5.4095 0.0000 -0.0000 -9.5466 10.5743 -9.7930 7.6820 0.0000 -0.0000 10.8065 -10.2115 -6.3994 3.9398 0.0000 0.0000 -10.4510 -8.9140 15.2319 10.3633 0.0000 -0.0000
 5.5041 35.9690 -1.1473 -114.7522 -82.4471 -114.2595 12.4804 1.5531 -1.6706 10.6914 8.4814 4.5368 5.3978 9.1635 27.7047 -41.1740 14.4696 -29.5013 -1.5785 0.0000 12.2102 2.2142 12.5352 -10.1010 33.1476 -0.0000 26.2537 34.6047 -29.5519 -9.7527 -67.8901 3.7844 35.8263 -2.3672 -0.0000 -8.6933 0.3471 -3.0472 6.5006 32.8623 0.0000 -24.3270 11.4942 15.6575 5.5793 5.3961 0.0000 -0.0000 -9.5249 10.5772 -9.8487 7.6529 -0.0000 -0.0000 10.7252 -10.1582 -6.3698 4.0716 -0.0000 -0.0000 -10.5157 -8.8651 15.1620 10.3240 -0.0000 0.0000
